<?xml version="1.0" encoding="UTF-8" standalone="no"?>
<svg width="27px" height="34px" viewBox="0 0 27 34" version="1.1" xmlns="http://www.w3.org/2000/svg" xmlns:xlink="http://www.w3.org/1999/xlink">
    <!-- Generator: sketchtool 3.8.3 (29802) - http://www.bohemiancoding.com/sketch -->
    <title>2FEDD677-A4CD-42F6-91AB-D8F7EE4407F6</title>
    <desc>Created with sketchtool.</desc>
    <defs>
        <polygon id="path-1" points="7.46542677 0.242533333 0.430547507 0.242533333 0.430547507 8.68428 7.46542677 8.68428 7.46542677 0.242533333"></polygon>
    </defs>
    <g id="Homepage---Desktop" stroke="none" stroke-width="1" fill="none" fill-rule="evenodd">
        <g id="02_Hero_1" transform="translate(-20.000000, -22.000000)">
            <g id="Nav" transform="translate(0.000000, 3.000000)">
                <g id="Hamburger-Menu">
                    <g id="Monk" transform="translate(20.000000, 19.000000)">
                        <path d="M22.6155045,21.0738347 L20.1122262,10.8584213 C20.0091528,10.4073547 19.6672394,10.0510347 19.2204362,9.92727467 C18.9225675,9.84431467 18.5293444,9.749568 18.0539349,9.65663467 L20.0468404,6.221728 C20.2479927,5.873568 20.1285727,5.42839467 19.7798483,5.227568 C19.4311239,5.02674133 18.9852289,5.14642133 18.7840766,5.49458133 L10.975011,18.9966613 L12.8907249,13.633728 L10.4514703,9.41591467 C9.23774593,9.56098133 8.32143622,9.767248 7.74613176,9.92727467 C7.29978268,10.0510347 6.95741522,10.4073547 6.8547958,10.8584213 L4.35151759,21.0738347 C4.12130499,22.0829547 4.61669344,23.1174613 5.55025774,23.5676213 C7.20261207,24.3636747 10.0405386,25.418128 13.483284,25.418128 C16.9264835,25.418128 19.76441,24.3636747 21.4167643,23.5676213 C22.3498745,23.1174613 22.8457171,22.0829547 22.6155045,21.0738347 L22.6155045,21.0738347 Z" id="Fill-1" fill="#FEFEFE"></path>
                        <g id="Group-5" transform="translate(9.535433, 0.211027)">
                            <mask id="mask-2" fill="white">
                                <use xlink:href="#path-1"></use>
                            </mask>
                            <g id="Clip-4"></g>
                            <path d="M7.46542677,3.75382667 C7.46542677,1.81446667 5.89071811,0.242306667 3.9477601,0.242306667 C2.00525617,0.242306667 0.430547507,1.81446667 0.430547507,3.75382667 C0.430547507,5.69318667 1.62111444,8.68428 3.9477601,8.68428 C6.27485984,8.68428 7.46542677,5.69318667 7.46542677,3.75382667" id="Fill-3" fill="#FEFEFE" mask="url(#mask-2)"></path>
                        </g>
                        <path d="M26.0125252,28.92924 L21.5108927,25.4181733 C21.2815882,25.21508 20.9619241,25.1108133 20.6672339,25.19604 C19.1206774,25.6443867 18.4009793,25.8914533 17.0642024,26.1475867 C14.6975987,26.6004667 12.2696958,26.6004667 9.90263806,26.1475867 C8.56586115,25.8914533 7.70494777,25.5981467 6.30233097,25.1869733 C6.00809475,25.10084 5.68797664,25.2060133 5.45867218,25.4086533 L0.954315223,28.92924 C-0.944144094,30.6201733 0.15470105,33.7576933 2.79783228,33.7576933 C8.14811837,33.7576933 14.140457,31.6637467 19.3967509,28.883 L15.3060501,32.1995867 C19.0734543,33.39956 22.1379609,33.7576933 24.1685541,33.7576933 C26.8121394,33.7576933 27.9109845,30.6201733 26.0125252,28.92924" id="Fill-6" fill="#FEFEFE"></path>
                    </g>
                </g>
            </g>
        </g>
    </g>
</svg>